<svg xmlns="http://www.w3.org/2000/svg" width="0" height="0" class="hidden">
    <symbol id="github" viewBox="0 0 24 24" fill="none" stroke="currentColor" stroke-width="2" stroke-linecap="round"
        stroke-linejoin="round">
        <path
            d="M15 22v-4a4.8 4.8 0 0 0-1-3.5c3 0 6-2 6-5.5.08-1.25-.27-2.48-1-3.5.28-1.15.28-2.35 0-3.5 0 0-1 0-3 1.5-2.64-.5-5.36-.5-8 0C6 2 5 2 5 2c-.3 1.15-.3 2.35 0 3.5A5.403 5.403 0 0 0 4 9c0 3.5 3 5.5 6 5.5-.39.49-.68 1.05-.85 1.65-.17.6-.22 1.23-.15 1.85v4" />
        <path d="M9 18c-4.51 2-5-2-7-2" />
    </symbol>
    <symbol id="twitter" viewBox="0 0 24 24" fill="none" stroke="currentColor" stroke-width="2" stroke-linecap="round"
        stroke-linejoin="round">
        <path
            d="M22 4s-.7 2.1-2 3.4c1.6 10-9.4 17.3-18 11.6 2.2.1 4.4-.6 6-2C3 15.5.5 9.6 3 5c2.2 2.6 5.6 4.1 9 4-.9-4.2 4-6.6 7-3.8 1.1 0 3-1.2 3-1.2z" />
    </symbol>
    <symbol id="linkedin" viewBox="0 0 24 24" fill="none" stroke="currentColor" stroke-width="2" stroke-linecap="round"
        stroke-linejoin="round">
        <path d="M16 8a6 6 0 0 1 6 6v7h-4v-7a2 2 0 0 0-2-2 2 2 0 0 0-2 2v7h-4v-7a6 6 0 0 1 6-6z" />
        <rect width="4" height="12" x="2" y="9" />
        <circle cx="4" cy="4" r="2" />
    </symbol>
    <symbol id="mail" viewBox="0 0 24 24" fill="none" stroke="currentColor" stroke-width="2" stroke-linecap="round"
        stroke-linejoin="round">
        <rect width="20" height="16" x="2" y="4" rx="2" />
        <path d="m22 7-8.97 5.7a1.94 1.94 0 0 1-2.06 0L2 7" />
    </symbol>
    <symbol id="menu" viewBox="0 0 24 24" fill="none" stroke="currentColor" stroke-width="2" stroke-linecap="round"
        stroke-linejoin="round">
        <line x1="4" x2="20" y1="12" y2="12"></line>
        <line x1="4" x2="20" y1="6" y2="6"></line>
        <line x1="4" x2="20" y1="18" y2="18"></line>
    </symbol>
    <symbol id="close" viewBox="0 0 24 24" fill="none" stroke="currentColor" stroke-width="2" stroke-linecap="round"
        stroke-linejoin="round">
        <path d="M18 6 6 18" />
        <path d="m6 6 12 12" />
    </symbol>

    <symbol id="chevron" viewBox="0 0 24 24" fill="none" stroke="currentColor" stroke-width="2" stroke-linecap="round"
        stroke-linejoin="round">
        <path d="m9 18 6-6-6-6" />
    </symbol>
    <symbol id="quote" viewBox="0 0 24 24" fill="none" stroke="currentColor" stroke-width="2" stroke-linecap="round"
        stroke-linejoin="round">
        <path
            d="M16 3a2 2 0 0 0-2 2v6a2 2 0 0 0 2 2 1 1 0 0 1 1 1v1a2 2 0 0 1-2 2 1 1 0 0 0-1 1v2a1 1 0 0 0 1 1 6 6 0 0 0 6-6V5a2 2 0 0 0-2-2z" />
        <path
            d="M5 3a2 2 0 0 0-2 2v6a2 2 0 0 0 2 2 1 1 0 0 1 1 1v1a2 2 0 0 1-2 2 1 1 0 0 0-1 1v2a1 1 0 0 0 1 1 6 6 0 0 0 6-6V5a2 2 0 0 0-2-2z" />
    </symbol>
    <symbol id="star" viewBox="0 0 24 24" fill="currentColor" stroke="currentColor" stroke-width="2"
        stroke-linecap="round" stroke-linejoin="round">
        <path
            d="M11.525 2.295a.53.53 0 0 1 .95 0l2.31 4.679a2.123 2.123 0 0 0 1.595 1.16l5.166.756a.53.53 0 0 1 .294.904l-3.736 3.638a2.123 2.123 0 0 0-.611 1.878l.882 5.14a.53.53 0 0 1-.771.56l-4.618-2.428a2.122 2.122 0 0 0-1.973 0L6.396 21.01a.53.53 0 0 1-.77-.56l.881-5.139a2.122 2.122 0 0 0-.611-1.879L2.16 9.795a.53.53 0 0 1 .294-.906l5.165-.755a2.122 2.122 0 0 0 1.597-1.16z" />
    </symbol>


    <symbol id="key" viewBox="0 0 24 24" fill="none" stroke="currentColor" stroke-width="2" stroke-linecap="round"
        stroke-linejoin="round">
        <path d="m15.5 7.5 2.3 2.3a1 1 0 0 0 1.4 0l2.1-2.1a1 1 0 0 0 0-1.4L19 4" />
        <path d="m21 2-9.6 9.6" />
        <circle cx="7.5" cy="15.5" r="5.5" />
    </symbol>
    <symbol id="book-open" viewBox="0 0 24 24" fill="none" stroke="currentColor" stroke-width="2" stroke-linecap="round"
        stroke-linejoin="round">
        <path d="M12 7v14" />
        <path
            d="M3 18a1 1 0 0 1-1-1V4a1 1 0 0 1 1-1h5a4 4 0 0 1 4 4 4 4 0 0 1 4-4h5a1 1 0 0 1 1 1v13a1 1 0 0 1-1 1h-6a3 3 0 0 0-3 3 3 3 0 0 0-3-3z" />
    </symbol>
    <symbol id="video" viewBox="0 0 24 24" fill="none" stroke="currentColor" stroke-width="2" stroke-linecap="round"
        stroke-linejoin="round">
        <path d="m16 13 5.223 3.482a.5.5 0 0 0 .777-.416V7.87a.5.5 0 0 0-.752-.432L16 10.5" />
        <rect x="2" y="6" width="14" height="12" rx="2" />
    </symbol>
    <symbol id="search" viewBox="0 0 24 24" fill="none" stroke="currentColor" stroke-width="2" stroke-linecap="round"
        stroke-linejoin="round">
        <circle cx="11" cy="11" r="8" />
        <path d="m21 21-4.3-4.3" />
    </symbol>
    <symbol id="clock" viewBox="0 0 24 24" fill="none" stroke="currentColor" stroke-width="2" stroke-linecap="round"
        stroke-linejoin="round">
        <circle cx="12" cy="12" r="10" />
        <polyline points="12 6 12 12 16 14" />
    </symbol>
    <symbol id="shield" viewBox="0 0 24 24" fill="none" stroke="currentColor" stroke-width="2" stroke-linecap="round"
        stroke-linejoin="round">
        <path
            d="M20 13c0 5-3.5 7.5-7.66 8.95a1 1 0 0 1-.67-.01C7.5 20.5 4 18 4 13V6a1 1 0 0 1 1-1c2 0 4.5-1.2 6.24-2.72a1.17 1.17 0 0 1 1.52 0C14.51 3.81 17 5 19 5a1 1 0 0 1 1 1z" />
    </symbol>
    <symbol id="check" viewBox="0 0 24 24" fill="none" stroke="currentColor" stroke-width="2" stroke-linecap="round"
        stroke-linejoin="round">
        <path d="M20 6 9 17l-5-5" />
    </symbol>



    <symbol id="calendar" viewBox="0 0 24 24" fill="none" stroke="currentColor" stroke-width="2" stroke-linecap="round"
        stroke-linejoin="round">
        <path d="M8 2v4" />
        <path d="M16 2v4" />
        <rect width="18" height="18" x="3" y="4" rx="2" />
        <path d="M3 10h18" />
    </symbol>
    <symbol id="crown" viewBox="0 0 24 24" fill="none" stroke="currentColor" stroke-width="2" stroke-linecap="round"
        stroke-linejoin="round">
        <path
            d="M11.562 3.266a.5.5 0 0 1 .876 0L15.39 8.87a1 1 0 0 0 1.516.294L21.183 5.5a.5.5 0 0 1 .798.519l-2.834 10.246a1 1 0 0 1-.956.734H5.81a1 1 0 0 1-.957-.734L2.02 6.02a.5.5 0 0 1 .798-.519l4.276 3.664a1 1 0 0 0 1.516-.294z" />
        <path d="M5 21h14" />
    </symbol>
    <symbol id="sparkles" viewBox="0 0 24 24" fill="none" stroke="currentColor" stroke-width="2" stroke-linecap="round"
        stroke-linejoin="round">
        <path
            d="M9.937 15.5A2 2 0 0 0 8.5 14.063l-6.135-1.582a.5.5 0 0 1 0-.962L8.5 9.936A2 2 0 0 0 9.937 8.5l1.582-6.135a.5.5 0 0 1 .963 0L14.063 8.5A2 2 0 0 0 15.5 9.937l6.135 1.581a.5.5 0 0 1 0 .964L15.5 14.063a2 2 0 0 0-1.437 1.437l-1.582 6.135a.5.5 0 0 1-.963 0z" />
        <path d="M20 3v4" />
        <path d="M22 5h-4" />
        <path d="M4 17v2" />
        <path d="M5 18H3" />
    </symbol>
    <symbol id="arrow" viewBox="0 0 24 24" fill="none" stroke="currentColor" stroke-width="2" stroke-linecap="round"
        stroke-linejoin="round">
        <path d="M5 12h14" />
        <path d="m12 5 7 7-7 7" />
    </symbol>
    <symbol id="play" viewBox="0 0 24 24" fill="none" stroke="currentColor"
        stroke-width="2" stroke-linecap="round" stroke-linejoin="round">
        <polygon points="6 3 20 12 6 21 6 3"/>
    </symbol>
</svg>